<?xml version="1.0" encoding="UTF-8"?>
<svg xmlns="http://www.w3.org/2000/svg" xmlns:xlink="http://www.w3.org/1999/xlink" width="255.118pt" height="141.732pt" viewBox="0 0 255.118 141.732" version="1.2">
<defs>
<filter id="alpha" filterUnits="objectBoundingBox" x="0%" y="0%" width="100%" height="100%">
  <feColorMatrix type="matrix" in="SourceGraphic" values="0 0 0 0 1 0 0 0 0 1 0 0 0 0 1 0 0 0 1 0"/>
</filter>
<mask id="mask0">
  <g filter="url(#alpha)">
<rect x="0" y="0" width="255.118" height="141.732" style="fill:rgb(0%,0%,0%);fill-opacity:0.779999;stroke:none;"/>
  </g>
</mask>
<clipPath id="clip2">
  <path d="M 1 15 L 13 15 L 13 27.3125 L 1 27.3125 Z M 1 15 "/>
</clipPath>
<clipPath id="clip3">
  <path d="M 0.675781 7 L 20 7 L 20 22 L 0.675781 22 Z M 0.675781 7 "/>
</clipPath>
<clipPath id="clip4">
  <path d="M 23 0.25 L 28 0.25 L 28 5 L 23 5 Z M 23 0.25 "/>
</clipPath>
<clipPath id="clip5">
  <path d="M 27 0.25 L 29.625 0.25 L 29.625 3 L 27 3 Z M 27 0.25 "/>
</clipPath>
<clipPath id="clip1">
  <rect x="0" y="0" width="30" height="28"/>
</clipPath>
<g id="surface5" clip-path="url(#clip1)">
<path style=" stroke:none;fill-rule:nonzero;fill:rgb(70.054626%,64.44397%,41.22467%);fill-opacity:1;" d="M 9.070312 20.105469 L 9.078125 20.085938 C 9.089844 20.058594 9.113281 20.023438 9.140625 19.980469 C 9.25 19.804688 9.417969 19.539062 9.367188 19.261719 C 9.339844 19.113281 9.253906 18.988281 9.117188 18.890625 C 8.917969 18.75 8.734375 18.707031 8.558594 18.753906 C 8.253906 18.839844 8.074219 19.195312 7.929688 19.480469 C 7.902344 19.539062 7.871094 19.59375 7.84375 19.644531 C 6.855469 21.449219 5.445312 23.101562 3.539062 24.699219 C 3.488281 24.742188 3.429688 24.785156 3.367188 24.828125 C 3.125 25.007812 2.851562 25.214844 2.820312 25.515625 C 2.800781 25.679688 2.859375 25.839844 2.992188 25.996094 C 3.128906 26.160156 3.28125 26.222656 3.433594 26.222656 C 3.777344 26.222656 4.128906 25.902344 4.355469 25.695312 C 5.992188 24.203125 7.699219 22.492188 9.070312 20.105469 "/>
<g clip-path="url(#clip2)" clip-rule="nonzero">
<path style=" stroke:none;fill-rule:nonzero;fill:rgb(70.054626%,64.44397%,41.22467%);fill-opacity:1;" d="M 11.992188 18.449219 C 11.773438 17.566406 11.207031 16.824219 10.398438 16.359375 C 8.691406 15.367188 7.089844 15.855469 6.019531 17.703125 C 5.117188 19.25 4.035156 20.570312 2.394531 22.128906 C 2.316406 22.203125 2.199219 22.289062 2.074219 22.378906 C 1.722656 22.632812 1.324219 22.925781 1.285156 23.3125 C 1.265625 23.496094 1.328125 23.671875 1.472656 23.839844 C 1.933594 24.371094 2.5 23.820312 2.914062 23.417969 C 2.992188 23.339844 3.070312 23.261719 3.144531 23.199219 C 3.636719 22.761719 4.019531 22.390625 4.359375 22.027344 C 5.460938 20.847656 6.34375 19.484375 7.085938 18.300781 C 7.480469 17.667969 8.355469 16.707031 9.777344 17.414062 C 10.246094 17.648438 10.5625 17.992188 10.707031 18.4375 C 10.878906 18.953125 10.8125 19.585938 10.519531 20.269531 C 10.398438 20.546875 10.296875 20.753906 10.183594 20.933594 C 8.480469 23.691406 6.738281 25.359375 5.902344 26.160156 C 5.652344 26.394531 5.503906 26.539062 5.4375 26.628906 C 5.351562 26.753906 5.359375 26.910156 5.464844 27.035156 C 5.59375 27.191406 5.894531 27.3125 6.203125 27.3125 C 6.394531 27.3125 6.589844 27.265625 6.746094 27.152344 C 8.042969 26.207031 10.4375 23.148438 11.679688 20.855469 C 12.085938 20.105469 12.195312 19.25 11.992188 18.449219 "/>
</g>
<path style=" stroke:none;fill-rule:nonzero;fill:rgb(70.054626%,64.44397%,41.22467%);fill-opacity:1;" d="M 11.925781 14.054688 C 9.492188 12.550781 6.597656 12.890625 4.734375 14.902344 C 4.691406 14.949219 4.664062 15.011719 4.664062 15.078125 C 4.652344 15.542969 4.890625 15.90625 5.296875 16.054688 C 5.382812 16.082031 5.476562 16.054688 5.539062 15.980469 C 6.652344 14.640625 8.386719 14.121094 10.171875 14.59375 C 11.929688 15.058594 13.273438 16.761719 13.441406 18.742188 C 13.550781 20.070312 13.164062 21.328125 12.1875 22.820312 C 11.703125 23.5625 11.160156 24.304688 10.578125 25.035156 C 10.476562 25.160156 10.457031 25.335938 10.527344 25.480469 C 10.59375 25.617188 10.71875 25.695312 10.859375 25.695312 C 10.878906 25.695312 10.902344 25.695312 10.921875 25.691406 C 11.300781 25.621094 11.648438 25.480469 11.953125 25.265625 C 12.039062 25.203125 12.148438 25.125 12.21875 25.03125 C 12.75 24.296875 13.175781 23.601562 13.597656 22.785156 L 13.742188 22.5 C 13.859375 22.277344 13.976562 22.050781 14.082031 21.820312 C 15.4375 18.925781 14.53125 15.660156 11.925781 14.054688 "/>
<path style=" stroke:none;fill-rule:nonzero;fill:rgb(70.054626%,64.44397%,41.22467%);fill-opacity:1;" d="M 5.152344 11.300781 C 3.597656 12.019531 2.613281 13.21875 1.929688 14.179688 L 1.902344 14.214844 L 1.898438 14.261719 C 1.894531 14.363281 1.925781 14.515625 2.113281 14.65625 C 2.363281 14.835938 2.816406 14.9375 3.066406 14.789062 L 3.113281 14.75 C 5.152344 11.890625 8.769531 10.949219 11.917969 12.460938 C 15.425781 14.148438 16.976562 18.050781 15.605469 21.738281 C 15.5 22.027344 15.375 22.328125 15.222656 22.664062 C 15.167969 22.777344 15.175781 22.910156 15.230469 23.023438 C 15.292969 23.140625 15.410156 23.214844 15.539062 23.21875 C 15.550781 23.222656 15.5625 23.222656 15.578125 23.222656 C 15.992188 23.222656 16.367188 22.914062 16.726562 22.257812 C 17.910156 18.769531 17.324219 15.621094 15.027344 13.148438 C 12.496094 10.421875 8.621094 9.699219 5.152344 11.300781 "/>
<g clip-path="url(#clip3)" clip-rule="nonzero">
<path style=" stroke:none;fill-rule:nonzero;fill:rgb(70.054626%,64.44397%,41.22467%);fill-opacity:1;" d="M 13.777344 8.882812 C 9.265625 6.722656 4.058594 7.671875 0.824219 11.25 L 0.796875 11.292969 C 0.566406 11.839844 0.664062 12.332031 1.082031 12.722656 L 1.191406 12.824219 L 1.28125 12.703125 C 1.375 12.570312 1.480469 12.429688 1.589844 12.308594 C 4.488281 9.066406 9.300781 8.101562 13.03125 10.011719 C 17.753906 12.433594 19.050781 17.289062 18.726562 20.738281 C 18.757812 21.074219 18.921875 21.15625 19.015625 21.175781 C 19.035156 21.179688 19.054688 21.179688 19.074219 21.179688 C 19.378906 21.179688 19.753906 20.753906 19.941406 20.328125 L 19.957031 20.273438 C 20.363281 15.582031 17.765625 10.792969 13.777344 8.882812 "/>
</g>
<g clip-path="url(#clip4)" clip-rule="nonzero">
<path style=" stroke:none;fill-rule:nonzero;fill:rgb(70.054626%,64.44397%,41.22467%);fill-opacity:1;" d="M 25.515625 1.050781 C 25.441406 0.980469 25.355469 0.921875 25.269531 0.890625 C 24.835938 0.71875 24.445312 0.6875 24.140625 0.804688 C 24.027344 0.847656 23.945312 0.953125 23.925781 1.078125 C 23.90625 1.203125 23.945312 1.324219 24.035156 1.40625 C 24.902344 2.203125 25.722656 3.082031 26.476562 4.011719 C 26.550781 4.101562 26.636719 4.125 26.722656 4.125 C 26.777344 4.125 26.832031 4.113281 26.875 4.105469 C 27.121094 4.054688 27.277344 3.988281 27.464844 3.796875 C 27.683594 3.566406 27.632812 3.398438 27.550781 3.296875 C 26.933594 2.519531 26.246094 1.765625 25.515625 1.050781 "/>
</g>
<g clip-path="url(#clip5)" clip-rule="nonzero">
<path style=" stroke:none;fill-rule:nonzero;fill:rgb(70.054626%,64.44397%,41.22467%);fill-opacity:1;" d="M 29.492188 1.582031 C 29.214844 1.214844 28.914062 0.847656 28.570312 0.457031 C 28.5 0.378906 28.410156 0.320312 28.316406 0.292969 C 27.949219 0.199219 27.613281 0.257812 27.371094 0.453125 C 27.316406 0.496094 27.285156 0.5625 27.28125 0.632812 C 27.273438 0.707031 27.300781 0.78125 27.347656 0.832031 C 27.851562 1.382812 28.332031 1.972656 28.777344 2.574219 C 28.84375 2.667969 28.945312 2.722656 29.054688 2.726562 C 29.058594 2.726562 29.066406 2.726562 29.070312 2.726562 C 29.171875 2.726562 29.265625 2.683594 29.335938 2.605469 C 29.417969 2.511719 29.488281 2.40625 29.550781 2.285156 C 29.671875 2.066406 29.648438 1.78125 29.492188 1.582031 "/>
</g>
<path style=" stroke:none;fill-rule:nonzero;fill:rgb(70.054626%,64.44397%,41.22467%);fill-opacity:1;" d="M 15.1875 6.679688 C 11.652344 4.632812 7.714844 4.472656 3.480469 6.199219 C 2.863281 6.449219 2.28125 6.816406 1.71875 7.167969 C 1.570312 7.261719 1.421875 7.355469 1.273438 7.449219 L 1.222656 7.5 C 0.9375 8 1.035156 8.367188 1.167969 8.589844 L 1.199219 8.636719 L 1.25 8.652344 C 1.457031 8.714844 1.671875 8.625 1.871094 8.519531 C 2.007812 8.445312 2.136719 8.359375 2.261719 8.273438 C 2.34375 8.214844 2.429688 8.160156 2.515625 8.109375 C 5.976562 6.042969 10.0625 5.761719 13.730469 7.34375 C 17.070312 8.785156 19.632812 11.648438 20.757812 15.199219 C 21.15625 16.457031 21.367188 17.742188 21.378906 19.019531 C 21.382812 19.230469 21.539062 19.40625 21.734375 19.414062 C 21.738281 19.414062 21.746094 19.414062 21.75 19.414062 C 22.082031 19.414062 22.5 19.101562 22.609375 18.628906 L 22.617188 18.605469 L 22.613281 18.582031 C 22.417969 13.550781 19.640625 9.097656 15.1875 6.679688 "/>
<path style=" stroke:none;fill-rule:nonzero;fill:rgb(70.054626%,64.44397%,41.22467%);fill-opacity:1;" d="M 20.332031 1.8125 C 22.039062 2.988281 23.5625 4.453125 24.851562 6.164062 C 24.949219 6.292969 25.09375 6.363281 25.246094 6.363281 C 25.269531 6.363281 25.289062 6.363281 25.308594 6.359375 C 25.476562 6.339844 25.617188 6.234375 25.6875 6.074219 C 25.789062 5.851562 25.800781 5.585938 25.71875 5.289062 L 25.695312 5.234375 C 24.523438 3.722656 23.171875 2.394531 21.675781 1.285156 C 21.578125 1.210938 21.460938 1.160156 21.34375 1.144531 C 20.914062 1.074219 20.59375 1.097656 20.359375 1.222656 C 20.253906 1.273438 20.191406 1.378906 20.183594 1.5 C 20.175781 1.625 20.234375 1.742188 20.332031 1.8125 "/>
<path style=" stroke:none;fill-rule:nonzero;fill:rgb(70.054626%,64.44397%,41.22467%);fill-opacity:1;" d="M 16.511719 4.292969 C 14.710938 3.320312 12.675781 2.679688 10.625 2.429688 C 9.65625 2.3125 8.511719 2.332031 7.023438 2.492188 C 6.152344 2.582031 5.332031 2.757812 4.339844 3.0625 C 3.796875 3.3125 3.609375 3.699219 3.789062 4.207031 C 3.84375 4.355469 3.992188 4.441406 4.136719 4.402344 C 4.289062 4.367188 4.460938 4.308594 4.574219 4.269531 L 4.667969 4.238281 C 9.253906 2.964844 14.007812 3.796875 17.703125 6.523438 C 21.046875 8.984375 23.222656 12.675781 23.824219 16.917969 C 23.84375 17.054688 23.925781 17.175781 24.042969 17.238281 C 24.101562 17.265625 24.160156 17.285156 24.222656 17.285156 C 24.292969 17.285156 24.363281 17.261719 24.425781 17.222656 C 24.738281 17.023438 24.996094 16.53125 24.984375 16.128906 C 24.070312 11.015625 20.984375 6.703125 16.511719 4.292969 "/>
<path style=" stroke:none;fill-rule:nonzero;fill:rgb(70.054626%,64.44397%,41.22467%);fill-opacity:1;" d="M 18.019531 2.003906 L 18 1.996094 C 17.457031 1.765625 16.578125 1.828125 16.152344 1.960938 C 16.035156 2 15.953125 2.109375 15.945312 2.238281 C 15.9375 2.371094 16.007812 2.488281 16.121094 2.539062 C 20.222656 4.441406 23.445312 7.792969 25.199219 11.972656 C 25.277344 12.15625 25.453125 12.277344 25.648438 12.277344 L 25.65625 12.277344 C 25.839844 12.273438 26 12.160156 26.070312 11.984375 C 26.175781 11.710938 26.160156 11.316406 26.011719 10.746094 C 24.375 7.144531 21.683594 4.207031 18.019531 2.003906 "/>
</g>
</defs>
<g id="surface1">
<path style=" stroke:none;fill-rule:nonzero;fill:rgb(70.054626%,64.44397%,41.22467%);fill-opacity:1;" d="M 54.070312 74.105469 L 54.078125 74.085938 C 54.089844 74.058594 54.113281 74.023438 54.140625 73.980469 C 54.25 73.804688 54.414062 73.539062 54.367188 73.261719 C 54.339844 73.113281 54.253906 72.988281 54.117188 72.890625 C 53.917969 72.75 53.730469 72.707031 53.558594 72.753906 C 53.253906 72.839844 53.074219 73.195312 52.929688 73.480469 C 52.898438 73.539062 52.871094 73.59375 52.84375 73.644531 C 51.851562 75.449219 50.445312 77.101562 48.535156 78.699219 C 48.488281 78.742188 48.429688 78.785156 48.371094 78.828125 C 48.125 79.007812 47.851562 79.214844 47.820312 79.515625 C 47.800781 79.679688 47.859375 79.839844 47.992188 79.996094 C 48.128906 80.160156 48.28125 80.222656 48.433594 80.222656 C 48.777344 80.222656 49.128906 79.902344 49.355469 79.695312 C 50.992188 78.203125 52.699219 76.492188 54.070312 74.105469 "/>
<path style=" stroke:none;fill-rule:nonzero;fill:rgb(70.054626%,64.44397%,41.22467%);fill-opacity:1;" d="M 56.992188 72.449219 C 56.769531 71.566406 56.203125 70.824219 55.398438 70.359375 C 53.6875 69.367188 52.089844 69.855469 51.019531 71.703125 C 50.117188 73.25 49.03125 74.570312 47.394531 76.128906 C 47.316406 76.203125 47.199219 76.289062 47.078125 76.378906 C 46.722656 76.632812 46.324219 76.925781 46.285156 77.3125 C 46.265625 77.496094 46.328125 77.671875 46.472656 77.839844 C 46.933594 78.371094 47.5 77.820312 47.914062 77.417969 C 47.992188 77.339844 48.070312 77.261719 48.144531 77.199219 C 48.636719 76.761719 49.019531 76.390625 49.359375 76.027344 C 50.460938 74.847656 51.34375 73.484375 52.085938 72.300781 C 52.480469 71.667969 53.355469 70.707031 54.773438 71.414062 C 55.246094 71.648438 55.558594 71.992188 55.707031 72.4375 C 55.875 72.953125 55.8125 73.585938 55.519531 74.269531 C 55.398438 74.546875 55.292969 74.753906 55.183594 74.933594 C 53.476562 77.691406 51.734375 79.359375 50.898438 80.160156 C 50.652344 80.394531 50.5 80.539062 50.4375 80.628906 C 50.351562 80.753906 50.359375 80.910156 50.460938 81.035156 C 50.59375 81.191406 50.894531 81.3125 51.199219 81.3125 C 51.390625 81.3125 51.585938 81.265625 51.742188 81.152344 C 53.039062 80.207031 55.4375 77.148438 56.675781 74.855469 C 57.082031 74.105469 57.195312 73.25 56.992188 72.449219 "/>
<path style=" stroke:none;fill-rule:nonzero;fill:rgb(70.054626%,64.44397%,41.22467%);fill-opacity:1;" d="M 56.925781 68.054688 C 54.488281 66.550781 51.597656 66.890625 49.734375 68.902344 C 49.691406 68.949219 49.664062 69.011719 49.660156 69.078125 C 49.652344 69.542969 49.890625 69.90625 50.292969 70.054688 C 50.382812 70.082031 50.476562 70.054688 50.535156 69.980469 C 51.652344 68.640625 53.386719 68.121094 55.167969 68.59375 C 56.925781 69.058594 58.269531 70.761719 58.4375 72.742188 C 58.550781 74.070312 58.164062 75.328125 57.1875 76.820312 C 56.703125 77.5625 56.160156 78.304688 55.574219 79.035156 C 55.472656 79.160156 55.453125 79.335938 55.527344 79.480469 C 55.59375 79.617188 55.71875 79.695312 55.855469 79.695312 C 55.878906 79.695312 55.898438 79.695312 55.921875 79.691406 C 56.296875 79.621094 56.644531 79.480469 56.953125 79.265625 C 57.039062 79.203125 57.148438 79.125 57.214844 79.03125 C 57.746094 78.296875 58.171875 77.601562 58.59375 76.785156 L 58.738281 76.5 C 58.855469 76.277344 58.972656 76.050781 59.078125 75.820312 C 60.433594 72.925781 59.527344 69.660156 56.925781 68.054688 "/>
<path style=" stroke:none;fill-rule:nonzero;fill:rgb(70.054626%,64.44397%,41.22467%);fill-opacity:1;" d="M 50.152344 65.300781 C 48.597656 66.019531 47.613281 67.21875 46.929688 68.179688 L 46.902344 68.214844 L 46.898438 68.261719 C 46.894531 68.363281 46.921875 68.515625 47.113281 68.65625 C 47.363281 68.835938 47.816406 68.9375 48.066406 68.789062 L 48.113281 68.75 C 50.152344 65.890625 53.769531 64.949219 56.914062 66.460938 C 60.421875 68.148438 61.972656 72.050781 60.605469 75.738281 C 60.496094 76.027344 60.371094 76.328125 60.21875 76.664062 C 60.167969 76.777344 60.167969 76.910156 60.226562 77.023438 C 60.289062 77.140625 60.40625 77.214844 60.535156 77.21875 C 60.546875 77.222656 60.558594 77.222656 60.574219 77.222656 C 60.988281 77.222656 61.363281 76.914062 61.722656 76.257812 C 62.90625 72.769531 62.316406 69.621094 60.023438 67.148438 C 57.492188 64.421875 53.617188 63.699219 50.152344 65.300781 "/>
<path style=" stroke:none;fill-rule:nonzero;fill:rgb(70.054626%,64.44397%,41.22467%);fill-opacity:1;" d="M 58.777344 62.882812 C 54.261719 60.722656 49.054688 61.671875 45.824219 65.25 L 45.796875 65.292969 C 45.566406 65.839844 45.664062 66.332031 46.082031 66.722656 L 46.191406 66.824219 L 46.28125 66.703125 C 46.375 66.570312 46.480469 66.429688 46.589844 66.308594 C 49.484375 63.066406 54.296875 62.101562 58.027344 64.011719 C 62.75 66.433594 64.046875 71.289062 63.722656 74.738281 C 63.753906 75.074219 63.917969 75.15625 64.011719 75.175781 C 64.03125 75.179688 64.050781 75.179688 64.070312 75.179688 C 64.375 75.179688 64.746094 74.753906 64.9375 74.328125 L 64.949219 74.273438 C 65.359375 69.582031 62.761719 64.792969 58.777344 62.882812 "/>
<path style=" stroke:none;fill-rule:nonzero;fill:rgb(70.054626%,64.44397%,41.22467%);fill-opacity:1;" d="M 70.507812 55.050781 C 70.4375 54.980469 70.351562 54.921875 70.261719 54.890625 C 69.828125 54.71875 69.4375 54.6875 69.136719 54.804688 C 69.019531 54.847656 68.941406 54.953125 68.917969 55.078125 C 68.898438 55.203125 68.941406 55.324219 69.03125 55.40625 C 69.898438 56.203125 70.71875 57.082031 71.472656 58.011719 C 71.542969 58.101562 71.632812 58.125 71.714844 58.125 C 71.769531 58.125 71.828125 58.113281 71.867188 58.105469 C 72.113281 58.054688 72.273438 57.988281 72.457031 57.796875 C 72.675781 57.566406 72.625 57.398438 72.542969 57.296875 C 71.925781 56.519531 71.242188 55.765625 70.507812 55.050781 "/>
<path style=" stroke:none;fill-rule:nonzero;fill:rgb(70.054626%,64.44397%,41.22467%);fill-opacity:1;" d="M 74.488281 55.582031 C 74.210938 55.214844 73.90625 54.847656 73.566406 54.457031 C 73.496094 54.378906 73.402344 54.320312 73.308594 54.292969 C 72.941406 54.199219 72.605469 54.257812 72.363281 54.453125 C 72.3125 54.496094 72.277344 54.5625 72.273438 54.632812 C 72.269531 54.707031 72.292969 54.78125 72.34375 54.832031 C 72.84375 55.382812 73.324219 55.972656 73.773438 56.574219 C 73.839844 56.667969 73.9375 56.722656 74.046875 56.726562 C 74.054688 56.726562 74.058594 56.726562 74.0625 56.726562 C 74.164062 56.726562 74.261719 56.683594 74.328125 56.605469 C 74.410156 56.511719 74.480469 56.40625 74.546875 56.285156 C 74.664062 56.066406 74.640625 55.78125 74.488281 55.582031 "/>
<path style=" stroke:none;fill-rule:nonzero;fill:rgb(70.054626%,64.44397%,41.22467%);fill-opacity:1;" d="M 60.183594 60.679688 C 56.648438 58.632812 52.714844 58.472656 48.480469 60.199219 C 47.863281 60.449219 47.28125 60.816406 46.71875 61.167969 C 46.570312 61.261719 46.421875 61.355469 46.273438 61.449219 L 46.222656 61.5 C 45.9375 62 46.035156 62.367188 46.167969 62.589844 L 46.199219 62.636719 L 46.25 62.652344 C 46.457031 62.714844 46.667969 62.625 46.871094 62.519531 C 47.007812 62.445312 47.136719 62.359375 47.261719 62.273438 C 47.34375 62.214844 47.429688 62.160156 47.515625 62.109375 C 50.976562 60.042969 55.0625 59.761719 58.730469 61.34375 C 62.070312 62.785156 64.628906 65.648438 65.753906 69.199219 C 66.152344 70.457031 66.363281 71.742188 66.375 73.019531 C 66.378906 73.230469 66.53125 73.40625 66.726562 73.414062 C 66.734375 73.414062 66.742188 73.414062 66.746094 73.414062 C 67.078125 73.414062 67.496094 73.101562 67.605469 72.628906 L 67.609375 72.605469 L 67.609375 72.582031 C 67.414062 67.550781 64.636719 63.097656 60.183594 60.679688 "/>
<path style=" stroke:none;fill-rule:nonzero;fill:rgb(70.054626%,64.44397%,41.22467%);fill-opacity:1;" d="M 65.328125 55.8125 C 67.035156 56.988281 68.554688 58.453125 69.847656 60.164062 C 69.941406 60.292969 70.085938 60.363281 70.242188 60.363281 C 70.261719 60.363281 70.285156 60.363281 70.304688 60.359375 C 70.46875 60.339844 70.609375 60.234375 70.679688 60.074219 C 70.78125 59.851562 70.792969 59.585938 70.714844 59.289062 L 70.6875 59.234375 C 69.519531 57.722656 68.167969 56.394531 66.671875 55.285156 C 66.570312 55.210938 66.453125 55.160156 66.339844 55.144531 C 65.910156 55.074219 65.589844 55.097656 65.355469 55.222656 C 65.25 55.273438 65.183594 55.378906 65.179688 55.5 C 65.171875 55.625 65.230469 55.742188 65.328125 55.8125 "/>
<path style=" stroke:none;fill-rule:nonzero;fill:rgb(70.054626%,64.44397%,41.22467%);fill-opacity:1;" d="M 61.507812 58.292969 C 59.707031 57.320312 57.671875 56.679688 55.621094 56.429688 C 54.65625 56.3125 53.511719 56.332031 52.023438 56.492188 C 51.152344 56.582031 50.332031 56.757812 49.339844 57.0625 C 48.792969 57.3125 48.609375 57.699219 48.789062 58.207031 C 48.839844 58.355469 48.992188 58.441406 49.136719 58.402344 C 49.289062 58.367188 49.460938 58.308594 49.574219 58.269531 L 49.667969 58.238281 C 54.253906 56.964844 59.003906 57.796875 62.703125 60.523438 C 66.042969 62.984375 68.214844 66.675781 68.816406 70.917969 C 68.839844 71.054688 68.917969 71.175781 69.039062 71.238281 C 69.09375 71.265625 69.15625 71.285156 69.21875 71.285156 C 69.285156 71.285156 69.355469 71.261719 69.417969 71.222656 C 69.734375 71.023438 69.992188 70.53125 69.976562 70.128906 C 69.066406 65.015625 65.976562 60.703125 61.507812 58.292969 "/>
<path style=" stroke:none;fill-rule:nonzero;fill:rgb(70.054626%,64.44397%,41.22467%);fill-opacity:1;" d="M 63.015625 56.003906 L 62.996094 55.996094 C 62.453125 55.765625 61.574219 55.828125 61.148438 55.960938 C 61.03125 56 60.949219 56.109375 60.941406 56.238281 C 60.9375 56.371094 61.003906 56.488281 61.117188 56.539062 C 65.21875 58.441406 68.441406 61.792969 70.191406 65.972656 C 70.269531 66.15625 70.445312 66.277344 70.640625 66.277344 L 70.648438 66.277344 C 70.835938 66.273438 70.992188 66.160156 71.0625 65.984375 C 71.167969 65.710938 71.152344 65.316406 71.007812 64.746094 C 69.367188 61.144531 66.679688 58.207031 63.015625 56.003906 "/>
<use xlink:href="#surface5" transform="matrix(1,0,0,1,45,54)" mask="url(#mask0)"/>
<path style=" stroke:none;fill-rule:nonzero;fill:rgb(10.346985%,14.94751%,13.302612%);fill-opacity:1;" d="M 78.148438 69.257812 C 78.03125 73.097656 76.785156 76.90625 74.550781 80.046875 C 72.332031 83.195312 69.164062 85.667969 65.5625 87.050781 C 61.960938 88.445312 57.941406 88.753906 54.164062 87.9375 C 50.375 87.128906 46.84375 85.160156 44.140625 82.382812 C 41.417969 79.609375 39.53125 76.027344 38.804688 72.203125 C 38.074219 68.382812 38.46875 64.335938 39.984375 60.738281 C 41.484375 57.136719 44.074219 53.992188 47.316406 51.808594 C 50.222656 49.839844 53.660156 48.667969 57.167969 48.429688 L 57.167969 48.417969 C 53.65625 48.625 50.199219 49.769531 47.257812 51.71875 C 43.976562 53.886719 41.339844 57.027344 39.789062 60.65625 C 38.226562 64.28125 37.78125 68.375 38.496094 72.261719 C 39.195312 76.152344 41.085938 79.824219 43.832031 82.675781 C 46.570312 85.542969 50.164062 87.589844 54.046875 88.457031 C 57.925781 89.328125 62.054688 89.050781 65.785156 87.648438 C 69.523438 86.25 72.824219 83.722656 75.15625 80.476562 C 77.503906 77.242188 78.839844 73.289062 78.996094 69.289062 Z M 78.148438 69.257812 "/>
<path style=" stroke:none;fill-rule:nonzero;fill:rgb(70.054626%,64.44397%,41.22467%);fill-opacity:1;" d="M 76.867188 68.734375 C 76.984375 68.734375 77.078125 68.828125 77.078125 68.945312 C 77.078125 69.0625 76.984375 69.160156 76.867188 69.160156 C 76.75 69.160156 76.65625 69.0625 76.65625 68.945312 C 76.65625 68.828125 76.75 68.734375 76.867188 68.734375 M 77.503906 68.945312 C 77.503906 68.597656 77.21875 68.3125 76.867188 68.3125 C 76.515625 68.3125 76.230469 68.597656 76.230469 68.945312 C 76.230469 69.136719 76.316406 69.304688 76.449219 69.421875 C 76.367188 72.871094 75.304688 76.300781 73.34375 79.183594 C 71.351562 82.136719 68.453125 84.5 65.109375 85.867188 C 61.769531 87.234375 57.980469 87.605469 54.390625 86.902344 C 50.792969 86.210938 47.394531 84.410156 44.746094 81.792969 C 42.09375 79.183594 40.203125 75.773438 39.429688 72.085938 C 38.648438 68.398438 38.957031 64.453125 40.371094 60.902344 C 41.777344 57.351562 44.261719 54.203125 47.433594 51.984375 C 50.273438 49.984375 53.667969 48.753906 57.167969 48.449219 L 57.167969 48.4375 C 53.664062 48.710938 50.25 49.914062 47.378906 51.898438 C 44.164062 54.097656 41.632812 57.242188 40.179688 60.824219 C 38.710938 64.398438 38.363281 68.390625 39.121094 72.144531 C 39.867188 75.902344 41.757812 79.398438 44.441406 82.085938 C 47.117188 84.785156 50.582031 86.667969 54.273438 87.421875 C 57.964844 88.179688 61.863281 87.839844 65.332031 86.457031 C 68.808594 85.085938 71.84375 82.667969 73.949219 79.617188 C 76.03125 76.621094 77.183594 73.035156 77.292969 69.414062 C 77.421875 69.296875 77.503906 69.132812 77.503906 68.945312 "/>
<path style=" stroke:none;fill-rule:nonzero;fill:rgb(70.054626%,64.44397%,41.22467%);fill-opacity:1;" d="M 80.292969 68.734375 C 80.40625 68.734375 80.503906 68.828125 80.503906 68.945312 C 80.503906 69.0625 80.40625 69.160156 80.292969 69.160156 C 80.175781 69.160156 80.078125 69.0625 80.078125 68.945312 C 80.078125 68.828125 80.175781 68.734375 80.292969 68.734375 M 80.925781 68.945312 C 80.925781 68.597656 80.640625 68.3125 80.292969 68.3125 C 79.941406 68.3125 79.65625 68.597656 79.65625 68.945312 C 79.65625 69.121094 79.726562 69.277344 79.839844 69.394531 C 79.625 73.527344 78.207031 77.59375 75.761719 80.910156 C 73.3125 84.253906 69.878906 86.835938 66.011719 88.238281 C 62.152344 89.660156 57.902344 89.902344 53.929688 88.972656 C 49.957031 88.050781 46.296875 85.917969 43.527344 82.972656 C 40.746094 80.03125 38.859375 76.277344 38.179688 72.316406 C 37.496094 68.363281 37.980469 64.222656 39.59375 60.574219 C 41.191406 56.917969 43.882812 53.777344 47.203125 51.628906 C 50.171875 49.695312 53.652344 48.582031 57.167969 48.40625 L 57.167969 48.394531 C 53.644531 48.542969 50.144531 49.625 47.140625 51.542969 C 43.785156 53.671875 41.046875 56.816406 39.398438 60.492188 C 37.738281 64.164062 37.207031 68.355469 37.867188 72.378906 C 38.523438 76.40625 40.410156 80.246094 43.222656 83.265625 C 46.023438 86.296875 49.746094 88.507812 53.816406 89.488281 C 57.886719 90.476562 62.246094 90.261719 66.242188 88.835938 C 70.230469 87.417969 73.804688 84.78125 76.363281 81.339844 C 78.921875 77.933594 80.429688 73.726562 80.683594 69.441406 C 80.832031 69.328125 80.925781 69.148438 80.925781 68.945312 "/>
<path style=" stroke:none;fill-rule:nonzero;fill:rgb(70.054626%,64.44397%,41.22467%);fill-opacity:1;" d="M 77.667969 68.957031 C 77.667969 69.378906 77.324219 69.71875 76.902344 69.71875 C 76.480469 69.71875 76.140625 69.378906 76.140625 68.957031 C 76.140625 68.535156 76.480469 68.191406 76.902344 68.191406 C 77.324219 68.191406 77.667969 68.535156 77.667969 68.957031 "/>
<path style=" stroke:none;fill-rule:nonzero;fill:rgb(70.054626%,64.44397%,41.22467%);fill-opacity:1;" d="M 81.007812 68.957031 C 81.007812 69.378906 80.667969 69.71875 80.246094 69.71875 C 79.824219 69.71875 79.480469 69.378906 79.480469 68.957031 C 79.480469 68.535156 79.824219 68.191406 80.246094 68.191406 C 80.667969 68.191406 81.007812 68.535156 81.007812 68.957031 "/>
<path style=" stroke:none;fill-rule:nonzero;fill:rgb(8.004761%,13.800049%,12.501526%);fill-opacity:1;" d="M 106.40625 65.089844 L 106.835938 65.566406 L 106.835938 70.183594 L 102.300781 65.003906 L 101.042969 65.003906 L 101.042969 65.089844 L 101.808594 65.835938 L 101.808594 71.046875 L 101.378906 71.523438 L 101.378906 71.609375 L 102.683594 71.609375 L 102.683594 71.523438 L 102.253906 71.046875 L 102.253906 66.335938 L 106.9375 71.609375 L 107.28125 71.609375 L 107.28125 65.566406 L 107.710938 65.089844 L 107.710938 65.003906 L 106.40625 65.003906 Z M 106.40625 65.089844 "/>
<path style=" stroke:none;fill-rule:nonzero;fill:rgb(8.004761%,13.800049%,12.501526%);fill-opacity:1;" d="M 131.515625 71.234375 L 129.261719 71.234375 L 129.261719 65.566406 L 129.691406 65.089844 L 129.691406 65.003906 L 127.910156 65.003906 L 127.910156 65.089844 L 128.339844 65.566406 L 128.339844 71.050781 L 127.910156 71.527344 L 127.910156 71.609375 L 132.457031 71.609375 L 132.457031 69.984375 L 132.367188 69.984375 Z M 131.515625 71.234375 "/>
<path style=" stroke:none;fill-rule:nonzero;fill:rgb(8.004761%,13.800049%,12.501526%);fill-opacity:1;" d="M 99.191406 71.234375 L 96.941406 71.234375 L 96.941406 68.277344 L 98.972656 68.277344 L 99.492188 68.746094 L 99.578125 68.746094 L 99.578125 67.441406 L 99.492188 67.441406 L 98.972656 67.910156 L 96.941406 67.910156 L 96.941406 65.371094 L 98.996094 65.371094 L 99.648438 66.203125 L 99.738281 66.203125 L 99.738281 65.003906 L 95.589844 65.003906 L 95.589844 65.089844 L 96.019531 65.566406 L 96.019531 71.050781 L 95.589844 71.527344 L 95.589844 71.609375 L 99.976562 71.609375 L 99.976562 70.203125 L 99.886719 70.203125 Z M 99.191406 71.234375 "/>
<path style=" stroke:none;fill-rule:nonzero;fill:rgb(8.004761%,13.800049%,12.501526%);fill-opacity:1;" d="M 112.382812 71.234375 L 110.128906 71.234375 L 110.128906 68.277344 L 112.164062 68.277344 L 112.683594 68.746094 L 112.769531 68.746094 L 112.769531 67.441406 L 112.683594 67.441406 L 112.164062 67.910156 L 110.128906 67.910156 L 110.128906 65.371094 L 112.183594 65.371094 L 112.839844 66.203125 L 112.925781 66.203125 L 112.925781 65.003906 L 108.777344 65.003906 L 108.777344 65.089844 L 109.207031 65.566406 L 109.207031 71.050781 L 108.777344 71.527344 L 108.777344 71.609375 L 113.164062 71.609375 L 113.164062 70.203125 L 113.078125 70.203125 Z M 112.382812 71.234375 "/>
<path style=" stroke:none;fill-rule:nonzero;fill:rgb(8.004761%,13.800049%,12.501526%);fill-opacity:1;" d="M 122.554688 68.476562 L 123.527344 65.445312 L 124.589844 68.476562 Z M 124.292969 65.003906 L 123.253906 65.003906 L 121.300781 71.054688 L 120.878906 71.523438 L 120.878906 71.613281 L 122.160156 71.613281 L 122.160156 71.523438 L 121.730469 71.050781 L 122.542969 68.511719 L 122.617188 68.84375 L 124.71875 68.84375 L 125.492188 71.046875 L 125.0625 71.523438 L 125.0625 71.613281 L 126.84375 71.613281 L 126.84375 71.523438 L 126.417969 71.050781 Z M 124.292969 65.003906 "/>
<path style=" stroke:none;fill-rule:nonzero;fill:rgb(8.004761%,13.800049%,12.501526%);fill-opacity:1;" d="M 116.46875 68.371094 L 115.585938 68.371094 L 115.585938 65.351562 L 116.199219 65.351562 C 117.207031 65.351562 117.601562 66.152344 117.601562 66.871094 C 117.601562 67.597656 117.203125 68.371094 116.46875 68.371094 M 118.449219 70.074219 L 117.496094 68.464844 C 117.699219 68.355469 117.875 68.21875 118.015625 68.054688 C 118.503906 67.496094 118.628906 66.710938 118.335938 66.058594 C 118.03125 65.390625 117.351562 65.003906 116.476562 65.003906 L 114.234375 65.003906 L 114.234375 65.089844 L 114.664062 65.566406 L 114.664062 71.050781 L 114.234375 71.527344 L 114.234375 71.609375 L 116.015625 71.609375 L 116.015625 71.527344 L 115.585938 71.050781 L 115.585938 68.402344 L 115.761719 68.707031 L 116.519531 68.707031 C 116.546875 68.707031 116.578125 68.707031 116.621094 68.703125 L 117.683594 70.53125 C 118.402344 71.804688 119.148438 71.738281 119.808594 71.609375 L 119.808594 71.519531 C 119.5625 71.441406 119.160156 71.277344 118.449219 70.074219 "/>
<path style=" stroke:none;fill-rule:nonzero;fill:rgb(8.004761%,13.800049%,12.501526%);fill-opacity:1;" d="M 92.5 68.246094 L 93.171875 68.722656 L 93.171875 70.976562 C 92.804688 71.203125 92.320312 71.335938 91.832031 71.335938 C 90.199219 71.335938 89.191406 69.902344 89.191406 68.257812 C 89.191406 66.925781 89.886719 65.273438 91.730469 65.273438 C 92.15625 65.273438 93.015625 65.339844 93.707031 66.285156 L 93.785156 66.285156 L 93.785156 65.1875 C 93.164062 65.046875 92.578125 64.894531 91.730469 64.894531 C 89.414062 64.894531 88.171875 66.632812 88.171875 68.316406 C 88.171875 70.320312 89.65625 71.71875 91.78125 71.71875 C 92.828125 71.71875 93.65625 71.3125 94.078125 71.175781 L 94.09375 71.167969 L 94.09375 68.722656 L 94.523438 68.246094 L 94.523438 68.160156 L 92.5 68.160156 Z M 92.5 68.246094 "/>
<path style=" stroke:none;fill-rule:nonzero;fill:rgb(8.004761%,13.800049%,12.501526%);fill-opacity:1;" d="M 91.355469 80.824219 C 90.042969 80.824219 89.09375 79.550781 89.09375 77.796875 C 89.09375 76.035156 90.042969 74.753906 91.355469 74.753906 C 92.679688 74.753906 93.636719 76.035156 93.636719 77.796875 C 93.636719 79.550781 92.679688 80.824219 91.355469 80.824219 M 91.355469 74.375 C 89.515625 74.375 88.074219 75.875 88.074219 77.867188 C 88.074219 79.769531 89.484375 81.199219 91.355469 81.199219 C 93.203125 81.199219 94.648438 79.675781 94.648438 77.730469 C 94.648438 75.816406 93.234375 74.375 91.355469 74.375 "/>
<path style=" stroke:none;fill-rule:nonzero;fill:rgb(8.004761%,13.800049%,12.501526%);fill-opacity:1;" d="M 95.855469 74.570312 L 96.285156 75.046875 L 96.285156 80.527344 L 95.855469 81.003906 L 95.855469 81.089844 L 97.636719 81.089844 L 97.636719 81.003906 L 97.207031 80.527344 L 97.207031 77.757812 L 99.242188 77.757812 L 99.761719 78.226562 L 99.847656 78.226562 L 99.847656 76.921875 L 99.761719 76.921875 L 99.242188 77.390625 L 97.207031 77.390625 L 97.207031 74.851562 L 99.261719 74.851562 L 99.917969 75.683594 L 100.003906 75.683594 L 100.003906 74.484375 L 95.855469 74.484375 Z M 95.855469 74.570312 "/>
<path style=" stroke:none;fill-rule:nonzero;fill:rgb(8.004761%,13.800049%,12.501526%);fill-opacity:1;" d="M 145.003906 70.453125 C 144.5625 70.976562 143.949219 71.253906 143.230469 71.253906 C 142.496094 71.253906 142.089844 71.113281 141.910156 71.023438 L 141.910156 65.359375 L 142.972656 65.359375 C 144.574219 65.359375 145.691406 66.554688 145.691406 68.269531 C 145.691406 69.164062 145.453125 69.917969 145.003906 70.453125 M 145.617188 65.835938 C 144.957031 65.300781 144.023438 65.003906 142.992188 65.003906 L 140.558594 65.003906 L 140.558594 65.089844 L 140.988281 65.566406 L 140.988281 71.046875 L 140.558594 71.523438 L 140.558594 71.609375 L 143.25 71.609375 C 145.289062 71.609375 146.710938 70.230469 146.710938 68.257812 C 146.710938 67.257812 146.332031 66.421875 145.617188 65.835938 "/>
<path style=" stroke:none;fill-rule:nonzero;fill:rgb(8.004761%,13.800049%,12.501526%);fill-opacity:1;" d="M 171.753906 67.765625 C 170.996094 67.238281 170.492188 66.886719 170.492188 66.175781 C 170.492188 65.628906 170.894531 65.261719 171.496094 65.261719 C 171.785156 65.261719 172.304688 65.332031 172.765625 66.066406 L 172.84375 66.066406 L 172.84375 65.101562 C 172.753906 65.066406 172.320312 64.894531 171.554688 64.894531 C 170.421875 64.894531 169.691406 65.511719 169.691406 66.464844 C 169.691406 67.320312 170.230469 67.847656 171.226562 68.523438 C 172.070312 69.078125 172.46875 69.46875 172.46875 70.191406 C 172.46875 70.847656 171.980469 71.324219 171.308594 71.324219 C 170.425781 71.324219 169.898438 70.726562 169.597656 69.628906 L 169.496094 69.628906 L 169.496094 71.238281 C 169.796875 71.429688 170.398438 71.710938 171.308594 71.710938 C 172.507812 71.710938 173.3125 70.972656 173.3125 69.875 C 173.3125 68.898438 172.589844 68.375 171.753906 67.765625 "/>
<path style=" stroke:none;fill-rule:nonzero;fill:rgb(8.004761%,13.800049%,12.501526%);fill-opacity:1;" d="M 183.394531 68.371094 L 182.511719 68.371094 L 182.511719 65.351562 L 183.125 65.351562 C 184.132812 65.351562 184.523438 66.152344 184.523438 66.871094 C 184.523438 67.597656 184.128906 68.371094 183.394531 68.371094 M 185.375 70.074219 L 184.421875 68.464844 C 184.625 68.355469 184.800781 68.21875 184.941406 68.054688 C 185.429688 67.496094 185.554688 66.710938 185.257812 66.058594 C 184.953125 65.390625 184.277344 65.003906 183.402344 65.003906 L 181.15625 65.003906 L 181.15625 65.089844 L 181.589844 65.566406 L 181.589844 71.050781 L 181.15625 71.527344 L 181.15625 71.609375 L 182.9375 71.609375 L 182.9375 71.527344 L 182.511719 71.050781 L 182.511719 68.402344 L 182.683594 68.707031 L 183.441406 68.707031 C 183.472656 68.707031 183.5 68.707031 183.546875 68.703125 L 184.605469 70.53125 C 185.328125 71.804688 186.074219 71.738281 186.734375 71.609375 L 186.734375 71.519531 C 186.488281 71.441406 186.085938 71.277344 185.375 70.074219 "/>
<path style=" stroke:none;fill-rule:nonzero;fill:rgb(8.004761%,13.800049%,12.501526%);fill-opacity:1;" d="M 174.378906 66.203125 L 174.464844 66.203125 L 175.121094 65.371094 L 176.769531 65.371094 L 176.769531 71.046875 L 176.339844 71.523438 L 176.339844 71.609375 L 178.121094 71.609375 L 178.121094 71.523438 L 177.691406 71.046875 L 177.691406 65.371094 L 179.347656 65.371094 L 180.003906 66.203125 L 180.089844 66.203125 L 180.089844 65.003906 L 174.378906 65.003906 Z M 174.378906 66.203125 "/>
<path style=" stroke:none;fill-rule:nonzero;fill:rgb(8.004761%,13.800049%,12.501526%);fill-opacity:1;" d="M 151.410156 69.816406 L 148.878906 65.015625 L 148.875 65.003906 L 147.824219 65.003906 L 147.824219 65.089844 L 148.207031 65.808594 L 148.207031 71.046875 L 147.777344 71.523438 L 147.777344 71.609375 L 149.082031 71.609375 L 149.082031 71.523438 L 148.652344 71.050781 L 148.652344 66.496094 L 151.082031 71.035156 L 151.195312 71.035156 L 153.644531 66.421875 L 153.644531 71.050781 L 153.214844 71.523438 L 153.214844 71.609375 L 154.996094 71.609375 L 154.996094 71.523438 L 154.566406 71.050781 L 154.566406 65.566406 L 154.996094 65.089844 L 154.996094 65.003906 L 153.929688 65.003906 Z M 151.410156 69.816406 "/>
<path style=" stroke:none;fill-rule:nonzero;fill:rgb(8.004761%,13.800049%,12.501526%);fill-opacity:1;" d="M 217.472656 65.089844 L 217.902344 65.566406 L 217.902344 70.183594 L 213.367188 65.003906 L 212.105469 65.003906 L 212.105469 65.089844 L 212.871094 65.835938 L 212.871094 71.050781 L 212.441406 71.523438 L 212.441406 71.609375 L 213.746094 71.609375 L 213.746094 71.523438 L 213.316406 71.050781 L 213.316406 66.335938 L 218 71.609375 L 218.347656 71.609375 L 218.347656 65.566406 L 218.777344 65.089844 L 218.777344 65.003906 L 217.472656 65.003906 Z M 217.472656 65.089844 "/>
<path style=" stroke:none;fill-rule:nonzero;fill:rgb(8.004761%,13.800049%,12.501526%);fill-opacity:1;" d="M 164.273438 65.089844 L 164.703125 65.566406 L 164.703125 70.183594 L 160.167969 65.003906 L 158.910156 65.003906 L 158.910156 65.089844 L 159.675781 65.835938 L 159.675781 71.050781 L 159.246094 71.523438 L 159.246094 71.609375 L 160.550781 71.609375 L 160.550781 71.523438 L 160.121094 71.050781 L 160.121094 66.335938 L 164.804688 71.609375 L 165.148438 71.609375 L 165.148438 65.566406 L 165.578125 65.089844 L 165.578125 65.003906 L 164.273438 65.003906 Z M 164.273438 65.089844 "/>
<path style=" stroke:none;fill-rule:nonzero;fill:rgb(8.004761%,13.800049%,12.501526%);fill-opacity:1;" d="M 207.746094 71.34375 C 206.4375 71.34375 205.484375 70.070312 205.484375 68.316406 C 205.484375 66.554688 206.4375 65.273438 207.746094 65.273438 C 209.070312 65.273438 210.03125 66.554688 210.03125 68.316406 C 210.03125 70.070312 209.070312 71.34375 207.746094 71.34375 M 207.746094 64.894531 C 205.910156 64.894531 204.464844 66.394531 204.464844 68.386719 C 204.464844 70.289062 205.875 71.71875 207.746094 71.71875 C 209.59375 71.71875 211.039062 70.195312 211.039062 68.25 C 211.039062 66.339844 209.625 64.894531 207.746094 64.894531 "/>
<path style=" stroke:none;fill-rule:nonzero;fill:rgb(8.004761%,13.800049%,12.501526%);fill-opacity:1;" d="M 201.617188 65.089844 L 202.046875 65.566406 L 202.046875 71.050781 L 201.617188 71.523438 L 201.617188 71.609375 L 203.398438 71.609375 L 203.398438 71.523438 L 202.96875 71.050781 L 202.96875 65.566406 L 203.398438 65.089844 L 203.398438 65.003906 L 201.617188 65.003906 Z M 201.617188 65.089844 "/>
<path style=" stroke:none;fill-rule:nonzero;fill:rgb(8.004761%,13.800049%,12.501526%);fill-opacity:1;" d="M 166.644531 65.089844 L 167.074219 65.566406 L 167.074219 71.050781 L 166.644531 71.523438 L 166.644531 71.609375 L 168.425781 71.609375 L 168.425781 71.523438 L 167.996094 71.050781 L 167.996094 65.566406 L 168.425781 65.089844 L 168.425781 65.003906 L 166.644531 65.003906 Z M 166.644531 65.089844 "/>
<path style=" stroke:none;fill-rule:nonzero;fill:rgb(8.004761%,13.800049%,12.501526%);fill-opacity:1;" d="M 156.0625 65.089844 L 156.492188 65.566406 L 156.492188 71.050781 L 156.0625 71.523438 L 156.0625 71.609375 L 157.84375 71.609375 L 157.84375 71.523438 L 157.414062 71.050781 L 157.414062 65.566406 L 157.84375 65.089844 L 157.84375 65.003906 L 156.0625 65.003906 Z M 156.0625 65.089844 "/>
<path style=" stroke:none;fill-rule:nonzero;fill:rgb(8.004761%,13.800049%,12.501526%);fill-opacity:1;" d="M 194.835938 66.203125 L 194.925781 66.203125 L 195.578125 65.371094 L 197.226562 65.371094 L 197.226562 71.050781 L 196.796875 71.523438 L 196.796875 71.609375 L 198.578125 71.609375 L 198.578125 71.523438 L 198.148438 71.050781 L 198.148438 65.371094 L 199.804688 65.371094 L 200.460938 66.203125 L 200.550781 66.203125 L 200.550781 65.007812 L 194.835938 65.007812 Z M 194.835938 66.203125 "/>
<path style=" stroke:none;fill-rule:nonzero;fill:rgb(8.004761%,13.800049%,12.501526%);fill-opacity:1;" d="M 189.480469 68.476562 L 190.453125 65.441406 L 191.515625 68.476562 Z M 191.21875 65.003906 L 190.179688 65.003906 L 188.226562 71.054688 L 187.804688 71.523438 L 187.804688 71.613281 L 189.085938 71.613281 L 189.085938 71.523438 L 188.65625 71.050781 L 189.46875 68.511719 L 189.542969 68.84375 L 191.644531 68.84375 L 192.417969 71.046875 L 191.988281 71.523438 L 191.988281 71.613281 L 193.769531 71.613281 L 193.769531 71.523438 L 193.34375 71.050781 Z M 191.21875 65.003906 "/>
<path style=" stroke:none;fill-rule:nonzero;fill:rgb(8.004761%,13.800049%,12.501526%);fill-opacity:1;" d="M 135.203125 68.476562 L 136.175781 65.441406 L 137.238281 68.476562 Z M 136.941406 65.003906 L 135.902344 65.003906 L 133.949219 71.054688 L 133.523438 71.523438 L 133.523438 71.613281 L 134.808594 71.613281 L 134.808594 71.523438 L 134.378906 71.050781 L 135.191406 68.511719 L 135.265625 68.84375 L 137.367188 68.84375 L 138.140625 71.046875 L 137.710938 71.523438 L 137.710938 71.613281 L 139.492188 71.613281 L 139.492188 71.523438 L 139.066406 71.050781 Z M 136.941406 65.003906 "/>
<path style=" stroke:none;fill-rule:nonzero;fill:rgb(8.004761%,13.800049%,12.501526%);fill-opacity:1;" d="M 106.882812 79.75 C 106.304688 80.472656 105.605469 80.835938 104.8125 80.835938 C 103.34375 80.835938 102.234375 79.507812 102.234375 77.75 C 102.234375 76.265625 103.097656 74.761719 104.746094 74.761719 C 105.585938 74.761719 106.257812 75.105469 106.742188 75.777344 L 106.75 75.785156 L 106.828125 75.785156 L 106.828125 74.679688 L 106.8125 74.675781 C 106.347656 74.542969 105.617188 74.386719 104.785156 74.386719 C 103.730469 74.386719 102.824219 74.753906 102.160156 75.441406 C 101.550781 76.082031 101.210938 76.929688 101.210938 77.839844 C 101.210938 79.792969 102.714844 81.210938 104.785156 81.210938 C 106.03125 81.210938 106.863281 80.800781 106.957031 80.753906 L 106.964844 80.746094 L 106.964844 79.746094 L 106.886719 79.746094 Z M 106.882812 79.75 "/>
<path style=" stroke:none;fill-rule:nonzero;fill:rgb(8.004761%,13.800049%,12.501526%);fill-opacity:1;" d="M 124.941406 80.742188 L 122.6875 80.742188 L 122.6875 75.074219 L 123.117188 74.597656 L 123.117188 74.511719 L 121.339844 74.511719 L 121.339844 74.597656 L 121.769531 75.074219 L 121.769531 80.554688 L 121.339844 81.03125 L 121.339844 81.117188 L 125.882812 81.117188 L 125.882812 79.492188 L 125.792969 79.492188 Z M 124.941406 80.742188 "/>
<path style=" stroke:none;fill-rule:nonzero;fill:rgb(8.004761%,13.800049%,12.501526%);fill-opacity:1;" d="M 108.171875 74.648438 L 108.601562 75.125 L 108.601562 80.605469 L 108.171875 81.082031 L 108.171875 81.167969 L 109.953125 81.167969 L 109.953125 81.082031 L 109.523438 80.605469 L 109.523438 75.125 L 109.953125 74.648438 L 109.953125 74.5625 L 108.171875 74.5625 Z M 108.171875 74.648438 "/>
<path style=" stroke:none;fill-rule:nonzero;fill:rgb(8.004761%,13.800049%,12.501526%);fill-opacity:1;" d="M 118.347656 74.644531 L 118.777344 75.121094 L 118.777344 80.601562 L 118.347656 81.078125 L 118.347656 81.164062 L 120.128906 81.164062 L 120.128906 81.078125 L 119.699219 80.601562 L 119.699219 75.121094 L 120.128906 74.644531 L 120.128906 74.558594 L 118.347656 74.558594 Z M 118.347656 74.644531 "/>
<path style=" stroke:none;fill-rule:nonzero;fill:rgb(8.004761%,13.800049%,12.501526%);fill-opacity:1;" d="M 115.777344 74.492188 L 116.207031 74.964844 L 114.445312 79.605469 L 112.574219 74.964844 L 113.003906 74.492188 L 113.003906 74.402344 L 111.160156 74.402344 L 111.160156 74.488281 L 111.59375 74.96875 L 114.152344 81.125 L 114.15625 81.136719 L 114.292969 81.136719 L 116.664062 74.96875 L 117.140625 74.488281 L 117.140625 74.402344 L 115.777344 74.402344 Z M 115.777344 74.492188 "/>
<path style=" stroke:none;fill-rule:nonzero;fill:rgb(8.004761%,13.800049%,12.501526%);fill-opacity:1;" d="M 164.035156 77.320312 C 163.28125 76.792969 162.78125 76.445312 162.78125 75.734375 C 162.78125 75.191406 163.183594 74.828125 163.777344 74.828125 C 164.066406 74.828125 164.585938 74.894531 165.042969 75.628906 L 165.121094 75.628906 L 165.121094 74.667969 C 165.03125 74.632812 164.597656 74.464844 163.839844 74.464844 C 162.710938 74.464844 161.984375 75.074219 161.984375 76.023438 C 161.984375 76.875 162.519531 77.402344 163.511719 78.070312 C 164.347656 78.621094 164.746094 79.011719 164.746094 79.734375 C 164.746094 80.386719 164.261719 80.859375 163.589844 80.859375 C 162.714844 80.859375 162.1875 80.265625 161.886719 79.171875 L 161.785156 79.171875 L 161.785156 80.773438 C 162.089844 80.964844 162.6875 81.242188 163.589844 81.242188 C 164.785156 81.242188 165.585938 80.507812 165.585938 79.417969 C 165.585938 78.445312 164.867188 77.921875 164.035156 77.320312 "/>
<path style=" stroke:none;fill-rule:nonzero;fill:rgb(8.004761%,13.800049%,12.501526%);fill-opacity:1;" d="M 128.761719 78.03125 L 129.726562 75.015625 L 130.785156 78.03125 Z M 130.488281 74.578125 L 129.457031 74.578125 L 127.511719 80.597656 L 127.089844 81.066406 L 127.089844 81.152344 L 128.367188 81.152344 L 128.367188 81.066406 L 127.941406 80.589844 L 128.75 78.066406 L 128.820312 78.394531 L 130.914062 78.394531 L 131.683594 80.589844 L 131.257812 81.066406 L 131.257812 81.152344 L 133.027344 81.152344 L 133.027344 81.066406 L 132.601562 80.59375 Z M 130.488281 74.578125 "/>
<path style=" stroke:none;fill-rule:nonzero;fill:rgb(8.004761%,13.800049%,12.501526%);fill-opacity:1;" d="M 146.574219 78.027344 L 147.542969 75.007812 L 148.601562 78.027344 Z M 148.304688 74.574219 L 147.269531 74.574219 L 145.328125 80.589844 L 144.90625 81.058594 L 144.90625 81.144531 L 146.183594 81.144531 L 146.183594 81.058594 L 145.753906 80.585938 L 146.566406 78.058594 L 146.636719 78.390625 L 148.730469 78.390625 L 149.5 80.585938 L 149.070312 81.058594 L 149.070312 81.144531 L 150.84375 81.144531 L 150.84375 81.058594 L 150.417969 80.585938 Z M 148.304688 74.574219 "/>
<path style=" stroke:none;fill-rule:nonzero;fill:rgb(8.004761%,13.800049%,12.501526%);fill-opacity:1;" d="M 157.253906 77.921875 L 156.375 77.921875 L 156.375 74.917969 L 156.988281 74.917969 C 157.992188 74.917969 158.378906 75.714844 158.378906 76.429688 C 158.378906 77.152344 157.984375 77.921875 157.253906 77.921875 M 159.226562 79.613281 L 158.277344 78.015625 C 158.480469 77.90625 158.652344 77.769531 158.796875 77.605469 C 159.28125 77.046875 159.40625 76.269531 159.109375 75.621094 C 158.808594 74.953125 158.132812 74.570312 157.265625 74.570312 L 155.03125 74.570312 L 155.03125 74.65625 L 155.457031 75.132812 L 155.457031 80.585938 L 155.03125 81.058594 L 155.03125 81.144531 L 156.800781 81.144531 L 156.800781 81.058594 L 156.375 80.585938 L 156.375 77.953125 L 156.550781 78.253906 L 157.300781 78.253906 C 157.332031 78.253906 157.363281 78.253906 157.40625 78.25 L 158.460938 80.070312 C 159.179688 81.339844 159.921875 81.269531 160.578125 81.140625 L 160.578125 81.050781 C 160.335938 80.976562 159.933594 80.8125 159.226562 79.613281 "/>
<path style=" stroke:none;fill-rule:nonzero;fill:rgb(8.004761%,13.800049%,12.501526%);fill-opacity:1;" d="M 134.234375 74.664062 L 134.664062 75.136719 L 134.664062 80.59375 L 134.234375 81.066406 L 134.234375 81.152344 L 136.007812 81.152344 L 136.007812 81.066406 L 135.582031 80.59375 L 135.582031 77.835938 L 137.601562 77.835938 L 138.121094 78.300781 L 138.207031 78.300781 L 138.207031 77.003906 L 138.121094 77.003906 L 137.601562 77.472656 L 135.582031 77.472656 L 135.582031 74.941406 L 137.625 74.941406 L 138.277344 75.773438 L 138.363281 75.773438 L 138.363281 74.578125 L 134.234375 74.578125 Z M 134.234375 74.664062 "/>
<path style=" stroke:none;fill-rule:nonzero;fill:rgb(8.004761%,13.800049%,12.501526%);fill-opacity:1;" d="M 139.570312 74.628906 L 140 75.101562 L 140 80.554688 L 139.570312 81.027344 L 139.570312 81.113281 L 141.34375 81.113281 L 141.34375 81.027344 L 140.914062 80.554688 L 140.914062 77.796875 L 142.9375 77.796875 L 143.457031 78.265625 L 143.542969 78.265625 L 143.542969 76.964844 L 143.457031 76.964844 L 142.9375 77.433594 L 140.914062 77.433594 L 140.914062 74.90625 L 142.960938 74.90625 L 143.609375 75.734375 L 143.699219 75.734375 L 143.699219 74.542969 L 139.570312 74.542969 Z M 139.570312 74.628906 "/>
<path style=" stroke:none;fill-rule:nonzero;fill:rgb(8.004761%,13.800049%,12.501526%);fill-opacity:1;" d="M 152.050781 74.65625 L 152.476562 75.132812 L 152.476562 80.585938 L 152.050781 81.058594 L 152.050781 81.144531 L 153.824219 81.144531 L 153.824219 81.058594 L 153.394531 80.585938 L 153.394531 75.132812 L 153.824219 74.65625 L 153.824219 74.570312 L 152.050781 74.570312 Z M 152.050781 74.65625 "/>
<path style=" stroke:none;fill-rule:nonzero;fill:rgb(8.004761%,13.800049%,12.501526%);fill-opacity:1;" d="M 150.972656 54.550781 L 151.449219 54.074219 L 151.449219 54.011719 L 150.972656 53.539062 L 150.914062 53.539062 L 150.4375 54.011719 L 150.4375 54.074219 L 150.914062 54.550781 Z M 150.972656 54.550781 "/>
<path style=" stroke:none;fill-rule:nonzero;fill:rgb(8.004761%,13.800049%,12.501526%);fill-opacity:1;" d="M 151.085938 55.25 L 151.707031 55.871094 L 151.785156 55.871094 L 152.40625 55.25 L 152.40625 55.171875 L 151.785156 54.550781 L 151.707031 54.550781 L 151.085938 55.171875 Z M 151.085938 55.25 "/>
<path style=" stroke:none;fill-rule:nonzero;fill:rgb(8.004761%,13.800049%,12.501526%);fill-opacity:1;" d="M 150.253906 55.871094 L 150.871094 55.25 L 150.871094 55.171875 L 150.253906 54.550781 L 150.171875 54.550781 L 149.550781 55.171875 L 149.550781 55.25 L 150.171875 55.871094 Z M 150.253906 55.871094 "/>
<path style=" stroke:none;fill-rule:nonzero;fill:rgb(8.004761%,13.800049%,12.501526%);fill-opacity:1;" d="M 101.761719 55.871094 L 102.382812 55.25 L 102.382812 55.171875 L 101.761719 54.550781 L 101.683594 54.550781 L 101.0625 55.171875 L 101.0625 55.25 L 101.683594 55.871094 Z M 101.761719 55.871094 "/>
<path style=" stroke:none;fill-rule:nonzero;fill:rgb(8.004761%,13.800049%,12.501526%);fill-opacity:1;" d="M 102.203125 57.175781 L 102.203125 60.617188 L 102.648438 61.113281 L 102.648438 61.203125 L 98.691406 61.203125 C 97.988281 61.203125 97.601562 60.992188 97.179688 60.648438 C 96.980469 60.980469 96.621094 61.203125 96.207031 61.203125 L 92.394531 61.203125 C 91.769531 61.203125 91.261719 60.695312 91.261719 60.066406 L 91.261719 56.9375 L 90.957031 56.9375 C 88.546875 56.9375 88.105469 60.328125 90.710938 60.660156 L 90.710938 60.796875 C 87.058594 60.796875 87.054688 56.59375 90.476562 56.59375 L 92.664062 56.59375 L 92.664062 56.683594 L 92.21875 57.175781 L 92.21875 60.09375 C 92.21875 60.488281 92.539062 60.8125 92.933594 60.8125 L 95.667969 60.8125 C 96.0625 60.8125 96.382812 60.488281 96.382812 60.09375 L 96.382812 56.589844 L 97.789062 56.589844 L 97.789062 56.679688 L 97.34375 57.175781 L 97.34375 59.851562 C 97.640625 60.421875 98.214844 60.8125 98.835938 60.8125 L 101.242188 60.8125 L 101.242188 56.59375 L 102.648438 56.59375 L 102.648438 56.683594 Z M 102.203125 57.175781 "/>
<path style=" stroke:none;fill-rule:nonzero;fill:rgb(8.004761%,13.800049%,12.501526%);fill-opacity:1;" d="M 136.875 56.9375 L 136.875 60.8125 L 134.957031 60.8125 C 134.667969 59.984375 134.191406 58.816406 134.972656 57.796875 C 135.386719 57.253906 136.027344 56.9375 136.710938 56.9375 Z M 134.203125 57.726562 C 133.164062 59.078125 133.738281 60.441406 134.019531 61.203125 L 136.671875 61.203125 L 136.875 60.84375 L 136.875 61.203125 C 136.875 62.53125 135.796875 63.15625 134.761719 62.996094 L 134.808594 63.367188 C 135.207031 63.40625 136.222656 63.65625 137.101562 62.863281 C 137.570312 62.441406 137.839844 61.835938 137.835938 61.203125 L 137.835938 57.179688 L 138.28125 56.683594 L 138.28125 56.59375 L 136.5 56.59375 C 135.601562 56.59375 134.75 57.011719 134.203125 57.726562 "/>
<path style=" stroke:none;fill-rule:nonzero;fill:rgb(8.004761%,13.800049%,12.501526%);fill-opacity:1;" d="M 143.15625 55.652344 L 142.648438 55.652344 C 142.355469 55.652344 142.140625 55.585938 142.015625 55.449219 C 141.890625 55.316406 141.875 55.140625 141.882812 55.019531 C 141.898438 54.816406 141.992188 54.683594 142.113281 54.609375 C 142.121094 54.605469 142.496094 54.371094 142.777344 54.820312 L 142.871094 54.820312 L 142.871094 54.417969 C 142.832031 54.402344 142.660156 54.332031 142.355469 54.332031 C 142.164062 54.332031 141.523438 54.382812 141.472656 55.042969 C 141.46875 55.113281 141.457031 55.433594 141.726562 55.652344 L 141.472656 55.652344 L 141.277344 55.53125 L 141.191406 55.53125 L 141.191406 55.871094 L 143.03125 55.871094 Z M 143.15625 55.652344 "/>
<path style=" stroke:none;fill-rule:nonzero;fill:rgb(8.004761%,13.800049%,12.501526%);fill-opacity:1;" d="M 91.78125 55.871094 L 92.398438 55.25 L 92.398438 55.171875 L 91.78125 54.550781 L 91.699219 54.550781 L 91.078125 55.171875 L 91.078125 55.25 L 91.699219 55.871094 Z M 91.78125 55.871094 "/>
<path style=" stroke:none;fill-rule:nonzero;fill:rgb(8.004761%,13.800049%,12.501526%);fill-opacity:1;" d="M 90.246094 55.871094 L 90.867188 55.25 L 90.867188 55.171875 L 90.246094 54.550781 L 90.167969 54.550781 L 89.546875 55.171875 L 89.546875 55.25 L 90.167969 55.871094 Z M 90.246094 55.871094 "/>
<path style=" stroke:none;fill-rule:nonzero;fill:rgb(8.004761%,13.800049%,12.501526%);fill-opacity:1;" d="M 97.589844 62.117188 L 96.96875 62.738281 L 96.96875 62.820312 L 97.589844 63.441406 L 97.667969 63.441406 L 98.289062 62.820312 L 98.289062 62.738281 L 97.667969 62.117188 Z M 97.589844 62.117188 "/>
<path style=" stroke:none;fill-rule:nonzero;fill:rgb(8.004761%,13.800049%,12.501526%);fill-opacity:1;" d="M 96.054688 62.117188 L 95.4375 62.738281 L 95.4375 62.820312 L 96.054688 63.441406 L 96.136719 63.441406 L 96.757812 62.820312 L 96.757812 62.738281 L 96.136719 62.117188 Z M 96.054688 62.117188 "/>
<path style=" stroke:none;fill-rule:nonzero;fill:rgb(8.004761%,13.800049%,12.501526%);fill-opacity:1;" d="M 121.703125 54.421875 L 122.152344 54.917969 L 122.152344 60.617188 L 121.703125 61.113281 L 121.703125 61.203125 L 123.554688 61.203125 L 123.554688 61.113281 L 123.109375 60.617188 L 123.109375 54.917969 L 123.554688 54.421875 L 123.554688 54.332031 L 121.703125 54.332031 Z M 121.703125 54.421875 "/>
<path style=" stroke:none;fill-rule:nonzero;fill:rgb(8.004761%,13.800049%,12.501526%);fill-opacity:1;" d="M 115.410156 60.8125 L 114.71875 60.808594 C 114.105469 60.808594 113.535156 60.429688 113.234375 59.867188 C 113.234375 59.828125 113.234375 59.792969 113.234375 59.753906 C 113.234375 58.632812 113.269531 57.320312 114.320312 57.320312 C 115.40625 57.320312 115.410156 58.539062 115.410156 60.769531 Z M 120.808594 54.421875 L 120.808594 54.332031 L 118.957031 54.332031 L 118.957031 54.421875 L 119.40625 54.917969 L 119.40625 60.8125 L 116.429688 60.8125 C 116.402344 58.902344 116.191406 56.964844 114.332031 56.964844 C 113.421875 56.964844 112.90625 57.558594 112.617188 58.207031 C 111.984375 59.609375 112.527344 60.8125 111.5 60.8125 L 108.4375 60.8125 L 108.4375 58.835938 C 108.4375 57.035156 107.191406 56.425781 106.019531 56.425781 C 105.480469 56.425781 105.050781 56.503906 104.683594 56.636719 L 104.683594 57.636719 L 104.765625 57.636719 C 105.320312 56.753906 105.976562 56.800781 106.0625 56.800781 C 106.757812 56.800781 107.449219 57.414062 107.449219 58.691406 L 107.449219 60.8125 L 104.726562 60.8125 L 104.125 60.429688 L 104.042969 60.429688 L 104.042969 61.203125 L 107.246094 61.203125 L 107.449219 60.84375 L 107.449219 61.203125 L 111.929688 61.203125 C 112.40625 61.203125 112.800781 60.996094 113.023438 60.613281 C 113.457031 60.976562 113.847656 61.203125 114.578125 61.203125 L 115.203125 61.203125 L 115.40625 60.84375 L 115.40625 61.203125 L 120.808594 61.203125 L 120.808594 61.113281 L 120.363281 60.617188 L 120.363281 54.917969 Z M 120.808594 54.421875 "/>
<path style=" stroke:none;fill-rule:nonzero;fill:rgb(8.004761%,13.800049%,12.501526%);fill-opacity:1;" d="M 128.925781 57.300781 L 129.542969 56.683594 L 129.542969 56.601562 L 128.925781 55.984375 L 128.84375 55.984375 L 128.226562 56.601562 L 128.226562 56.683594 L 128.84375 57.300781 Z M 128.925781 57.300781 "/>
<path style=" stroke:none;fill-rule:nonzero;fill:rgb(8.004761%,13.800049%,12.501526%);fill-opacity:1;" d="M 130.84375 56.683594 L 131.292969 57.175781 L 131.292969 59.839844 C 131.292969 63.851562 126.417969 64.179688 126.054688 60.453125 C 125.972656 59.589844 126.050781 58.585938 126.496094 57.515625 L 126.304688 57.421875 C 125.234375 58.429688 125.070312 59.65625 125.070312 60.285156 C 125.070312 64.367188 132.25 64.792969 132.25 59.761719 L 132.25 57.175781 L 132.699219 56.683594 L 132.699219 56.59375 L 130.84375 56.59375 Z M 130.84375 56.683594 "/>
<path style=" stroke:none;fill-rule:nonzero;fill:rgb(8.004761%,13.800049%,12.501526%);fill-opacity:1;" d="M 199.71875 61.324219 C 199.71875 62.511719 199.152344 63.203125 198.226562 63.03125 L 198.273438 63.382812 C 199.570312 63.628906 200.675781 62.984375 200.675781 61.238281 L 200.675781 57.175781 L 201.125 56.683594 L 201.125 56.59375 L 199.71875 56.59375 Z M 199.71875 61.324219 "/>
<path style=" stroke:none;fill-rule:nonzero;fill:rgb(8.004761%,13.800049%,12.501526%);fill-opacity:1;" d="M 197.339844 55.871094 L 197.960938 55.25 L 197.960938 55.171875 L 197.339844 54.550781 L 197.261719 54.550781 L 196.640625 55.171875 L 196.640625 55.25 L 197.261719 55.871094 Z M 197.339844 55.871094 "/>
<path style=" stroke:none;fill-rule:nonzero;fill:rgb(8.004761%,13.800049%,12.501526%);fill-opacity:1;" d="M 195.808594 55.871094 L 196.429688 55.25 L 196.429688 55.171875 L 195.808594 54.550781 L 195.726562 54.550781 L 195.105469 55.171875 L 195.105469 55.25 L 195.726562 55.871094 Z M 195.808594 55.871094 "/>
<path style=" stroke:none;fill-rule:nonzero;fill:rgb(8.004761%,13.800049%,12.501526%);fill-opacity:1;" d="M 196.820312 60.8125 L 196.492188 60.8125 C 195.433594 60.8125 194.578125 59.953125 194.578125 58.898438 C 194.578125 58.390625 194.78125 57.902344 195.140625 57.542969 C 195.5 57.183594 195.984375 56.984375 196.492188 56.984375 L 196.820312 56.984375 Z M 198.226562 56.59375 L 195.925781 56.59375 C 194.652344 56.59375 193.621094 57.625 193.621094 58.898438 C 193.621094 60.171875 194.652344 61.203125 195.925781 61.203125 L 196.617188 61.203125 L 196.820312 60.84375 L 196.820312 61.203125 L 197.78125 61.203125 L 197.78125 57.175781 L 198.226562 56.683594 Z M 198.226562 56.59375 "/>
<path style=" stroke:none;fill-rule:nonzero;fill:rgb(8.004761%,13.800049%,12.501526%);fill-opacity:1;" d="M 202.027344 54.421875 L 202.476562 54.917969 L 202.476562 60.617188 L 202.027344 61.113281 L 202.027344 61.203125 L 203.882812 61.203125 L 203.882812 61.113281 L 203.433594 60.617188 L 203.433594 54.917969 L 203.882812 54.421875 L 203.882812 54.332031 L 202.027344 54.332031 Z M 202.027344 54.421875 "/>
<path style=" stroke:none;fill-rule:nonzero;fill:rgb(8.004761%,13.800049%,12.501526%);fill-opacity:1;" d="M 209.195312 58.835938 C 209.195312 57.035156 207.949219 56.425781 206.777344 56.425781 C 206.238281 56.425781 205.808594 56.503906 205.441406 56.636719 L 205.441406 57.636719 L 205.523438 57.636719 C 206.074219 56.753906 206.734375 56.800781 206.820312 56.800781 C 207.515625 56.800781 208.207031 57.417969 208.207031 58.691406 L 208.207031 60.8125 L 205.484375 60.8125 L 204.882812 60.429688 L 204.800781 60.429688 L 204.800781 61.203125 L 208 61.203125 L 208.207031 60.84375 L 208.207031 61.203125 L 209.644531 61.203125 L 209.644531 61.113281 L 209.195312 60.617188 Z M 209.195312 58.835938 "/>
<path style=" stroke:none;fill-rule:nonzero;fill:rgb(8.004761%,13.800049%,12.501526%);fill-opacity:1;" d="M 212.742188 63.011719 C 212.613281 62.878906 212.601562 62.707031 212.609375 62.582031 C 212.621094 62.378906 212.71875 62.246094 212.839844 62.171875 C 212.84375 62.167969 213.222656 61.933594 213.503906 62.382812 L 213.597656 62.382812 L 213.597656 61.980469 C 213.554688 61.964844 213.386719 61.898438 213.082031 61.898438 C 212.886719 61.898438 212.25 61.949219 212.199219 62.609375 C 212.191406 62.675781 212.183594 62.996094 212.453125 63.21875 L 212.199219 63.21875 L 212 63.09375 L 211.917969 63.09375 L 211.917969 63.433594 L 213.753906 63.433594 L 213.878906 63.21875 L 213.371094 63.21875 C 213.078125 63.21875 212.867188 63.148438 212.742188 63.011719 "/>
<path style=" stroke:none;fill-rule:nonzero;fill:rgb(8.004761%,13.800049%,12.501526%);fill-opacity:1;" d="M 214.574219 54.421875 L 215.019531 54.917969 L 215.019531 60.808594 L 212.296875 60.808594 L 213.246094 60.207031 L 213.246094 56.257812 L 213.691406 55.761719 L 213.691406 55.671875 L 212.285156 55.671875 L 212.285156 60.808594 L 211.269531 60.808594 L 210.667969 60.429688 L 210.585938 60.429688 L 210.585938 61.203125 L 216.425781 61.203125 L 216.425781 61.113281 L 215.980469 60.617188 L 215.980469 54.917969 L 216.425781 54.421875 L 216.425781 54.332031 L 214.574219 54.332031 Z M 214.574219 54.421875 "/>
<path style=" stroke:none;fill-rule:nonzero;fill:rgb(8.004761%,13.800049%,12.501526%);fill-opacity:1;" d="M 219.171875 54.421875 L 219.171875 54.332031 L 217.320312 54.332031 L 217.320312 54.421875 L 217.765625 54.917969 L 217.765625 60.617188 L 217.320312 61.113281 L 217.320312 61.203125 L 219.171875 61.203125 L 219.171875 61.113281 L 218.726562 60.617188 L 218.726562 54.917969 Z M 219.171875 54.421875 "/>
<path style=" stroke:none;fill-rule:nonzero;fill:rgb(8.004761%,13.800049%,12.501526%);fill-opacity:1;" d="M 190.605469 54.421875 L 191.054688 54.917969 L 191.054688 60.617188 L 190.605469 61.113281 L 190.605469 61.203125 L 192.460938 61.203125 L 192.460938 61.113281 L 192.011719 60.617188 L 192.011719 54.917969 L 192.460938 54.421875 L 192.460938 54.332031 L 190.605469 54.332031 Z M 190.605469 54.421875 "/>
<path style=" stroke:none;fill-rule:nonzero;fill:rgb(8.004761%,13.800049%,12.501526%);fill-opacity:1;" d="M 181.003906 57.722656 C 182.050781 57.304688 183.007812 57.308594 184.050781 57.722656 C 184.050781 58.734375 183.566406 59.78125 182.527344 60.367188 C 181.492188 59.78125 181.007812 58.734375 181.003906 57.722656 M 189.714844 54.421875 L 189.714844 54.332031 L 187.859375 54.332031 L 187.859375 54.421875 L 188.308594 54.917969 L 188.308594 60.8125 L 184.441406 60.8125 C 183.96875 60.808594 183.550781 60.757812 183.183594 60.644531 C 184.597656 59.824219 185.042969 58.390625 185.152344 57.511719 C 184.480469 57.175781 183.550781 56.964844 182.527344 56.964844 C 181.503906 56.964844 180.574219 57.175781 179.902344 57.511719 C 180.015625 58.390625 180.457031 59.824219 181.871094 60.644531 C 181.496094 60.757812 181.070312 60.8125 180.589844 60.8125 L 177.03125 60.8125 L 177.03125 54.917969 L 177.476562 54.421875 L 177.476562 54.332031 L 175.625 54.332031 L 175.625 54.421875 L 176.070312 54.917969 L 176.070312 60.617188 L 175.625 61.113281 L 175.625 61.203125 L 181.058594 61.203125 C 181.605469 61.203125 182.09375 61.109375 182.527344 60.949219 C 182.960938 61.109375 183.449219 61.203125 184 61.203125 L 189.714844 61.203125 L 189.714844 61.113281 L 189.265625 60.617188 L 189.265625 54.917969 Z M 189.714844 54.421875 "/>
<path style=" stroke:none;fill-rule:nonzero;fill:rgb(8.004761%,13.800049%,12.501526%);fill-opacity:1;" d="M 166.769531 55.871094 L 167.390625 55.25 L 167.390625 55.171875 L 166.769531 54.550781 L 166.691406 54.550781 L 166.070312 55.171875 L 166.070312 55.25 L 166.691406 55.871094 Z M 166.769531 55.871094 "/>
<path style=" stroke:none;fill-rule:nonzero;fill:rgb(8.004761%,13.800049%,12.501526%);fill-opacity:1;" d="M 165.238281 55.871094 L 165.855469 55.25 L 165.855469 55.171875 L 165.238281 54.550781 L 165.15625 54.550781 L 164.535156 55.171875 L 164.535156 55.25 L 165.15625 55.871094 Z M 165.238281 55.871094 "/>
<path style=" stroke:none;fill-rule:nonzero;fill:rgb(8.004761%,13.800049%,12.501526%);fill-opacity:1;" d="M 172.921875 60.8125 C 172.308594 60.8125 171.738281 60.429688 171.4375 59.867188 C 171.4375 59.828125 171.4375 59.792969 171.4375 59.753906 C 171.4375 58.632812 171.46875 57.320312 172.523438 57.320312 C 173.605469 57.320312 173.609375 58.539062 173.609375 60.769531 L 173.609375 60.8125 Z M 174.632812 61.203125 C 174.625 59.171875 174.523438 56.964844 172.535156 56.964844 C 171.625 56.964844 171.109375 57.558594 170.816406 58.207031 C 170.183594 59.609375 170.730469 60.8125 169.703125 60.8125 L 167.925781 60.8125 C 167.53125 60.8125 167.210938 60.492188 167.210938 60.09375 L 167.210938 57.175781 L 167.65625 56.683594 L 167.65625 56.59375 L 165.46875 56.59375 C 162.046875 56.59375 162.046875 60.796875 165.703125 60.796875 L 165.703125 60.660156 C 163.097656 60.328125 163.539062 56.9375 165.949219 56.9375 L 166.25 56.9375 L 166.25 60.066406 C 166.25 60.695312 166.757812 61.203125 167.386719 61.203125 L 170.132812 61.203125 C 170.609375 61.203125 171.003906 60.996094 171.226562 60.613281 C 171.660156 60.976562 172.050781 61.203125 172.78125 61.203125 L 173.402344 61.203125 L 173.609375 60.84375 L 173.609375 61.203125 Z M 174.632812 61.203125 "/>
<path style=" stroke:none;fill-rule:nonzero;fill:rgb(8.004761%,13.800049%,12.501526%);fill-opacity:1;" d="M 142.410156 60.8125 L 140.488281 60.8125 C 140.199219 59.984375 139.722656 58.816406 140.503906 57.796875 C 140.917969 57.253906 141.5625 56.9375 142.242188 56.9375 L 142.410156 56.9375 Z M 161.832031 54.421875 L 161.832031 54.332031 L 159.980469 54.332031 L 159.980469 54.421875 L 160.425781 54.917969 L 160.425781 60.8125 L 158.636719 60.8125 L 158.636719 54.917969 L 159.085938 54.421875 L 159.085938 54.332031 L 157.230469 54.332031 L 157.230469 54.421875 L 157.679688 54.917969 L 157.679688 60.8125 L 153.765625 60.8125 C 153.941406 60.605469 154.042969 60.339844 154.042969 60.066406 L 154.042969 57.175781 L 154.492188 56.683594 L 154.492188 56.59375 L 153.085938 56.59375 L 153.085938 60.09375 C 153.085938 60.492188 152.765625 60.8125 152.371094 60.8125 L 151.117188 60.8125 C 151.296875 60.605469 151.398438 60.339844 151.398438 60.066406 L 151.398438 56.984375 L 150.4375 56.984375 L 150.4375 60.09375 C 150.4375 60.492188 150.117188 60.8125 149.722656 60.8125 L 148.210938 60.8125 C 148.390625 60.605469 148.492188 60.339844 148.492188 60.066406 L 148.492188 57.375 L 147.535156 57.375 L 147.535156 60.09375 C 147.535156 60.492188 147.214844 60.8125 146.820312 60.8125 L 143.367188 60.8125 L 143.367188 57.175781 L 143.8125 56.683594 L 143.8125 56.59375 L 142.03125 56.59375 C 141.132812 56.59375 140.28125 57.011719 139.734375 57.726562 C 138.699219 59.078125 139.269531 60.4375 139.550781 61.203125 L 142.203125 61.203125 L 142.410156 60.84375 L 142.410156 61.203125 C 142.410156 62.53125 141.328125 63.15625 140.292969 62.996094 L 140.339844 63.367188 C 140.738281 63.40625 141.757812 63.65625 142.632812 62.863281 C 143.105469 62.441406 143.371094 61.835938 143.367188 61.203125 L 147.355469 61.203125 C 147.65625 61.203125 147.945312 61.082031 148.160156 60.867188 C 148.175781 60.855469 148.1875 60.839844 148.203125 60.820312 L 148.421875 61.203125 L 150.261719 61.203125 C 150.5625 61.203125 150.851562 61.082031 151.0625 60.867188 C 151.078125 60.855469 151.09375 60.839844 151.105469 60.820312 L 151.324219 61.203125 L 152.90625 61.203125 C 153.207031 61.203125 153.496094 61.082031 153.710938 60.867188 C 153.726562 60.855469 153.738281 60.839844 153.753906 60.820312 L 153.972656 61.203125 L 161.832031 61.203125 L 161.832031 61.113281 L 161.382812 60.617188 L 161.382812 54.917969 Z M 161.832031 54.421875 "/>
</g>
</svg>
